<?xml version="1.0" encoding="utf-8"?>
<!-- Generator: Adobe Illustrator 21.0.1, SVG Export Plug-In . SVG Version: 6.00 Build 0)  -->
<svg version="1.1" id="VOD" xmlns="http://www.w3.org/2000/svg" xmlns:xlink="http://www.w3.org/1999/xlink" x="0px" y="0px"
	 viewBox="0 0 300 300" style="enable-background:new 0 0 300 300;" xml:space="preserve">
<style type="text/css">
	.st0{display:none;fill:none;stroke:#FFFFFF;stroke-width:8;stroke-miterlimit:10;}
	.st1{fill:#FFFFFF;}
</style>
<circle class="st0" cx="152.5" cy="153.5" r="139"/>
<g>
	<path class="st1" d="M76.2,161.5l18-51.9h20.7l-28.1,74.2H65.6l-28.1-74.2h20.7L76.2,161.5z"/>
	<path class="st1" d="M186.9,163.6c0,7.4-1.7,12.8-5,16.2c-3.4,3.4-8.7,5-16.2,5h-26.5c-7.4,0-12.8-1.7-16.2-5
		c-3.4-3.4-5-8.7-5-16.2v-33.9c0-7.4,1.7-12.8,5-16.2c3.4-3.4,8.7-5,16.2-5h26.5c7.4,0,12.8,1.7,16.2,5c3.4,3.4,5,8.7,5,16.2V163.6z
		 M167.9,129.7c0-4.2-2.1-6.4-6.4-6.4h-18c-4.2,0-6.4,2.1-6.4,6.4v33.9c0,4.2,2.1,6.4,6.4,6.4h18c4.2,0,6.4-2.1,6.4-6.4V129.7z"/>
	<path class="st1" d="M238.9,109.6c8,0,14,2.1,18.2,6.2c4.1,4.1,6.2,10.2,6.2,18.2v25.4c0,8-2.1,14-6.2,18.2
		c-4.1,4.1-10.2,6.2-18.2,6.2h-41.3v-74.2H238.9z M244.2,133.9c0-6.4-3.2-9.5-9.5-9.5h-18v44.5h18c6.4,0,9.5-3.2,9.5-9.5V133.9z"/>
</g>
<g>
</g>
<g>
</g>
<g>
</g>
<g>
</g>
<g>
</g>
<g>
</g>
<g>
</g>
<g>
</g>
<g>
</g>
<g>
</g>
<g>
</g>
</svg>
